# xmcd
#
# Track frame offsets:
#	150
#	41012
#	94914
#	136919
#	149462
#	201996
#	242221
#	295446
#	311032
#
# Disc length: 4500 seconds
#
# Revision: 1
# Processed by: cddbd v1.5.1PL2 Copyright (c) Steve Scherf et al.
# Submitted via: audiograbber 1.83.01
#
DISCID=90119209
DTITLE=Charles Lloyd - Sangam
DYEAR=2006
DGENRE=Jazz
TTITLE0=Dancing On One Foot
TTITLE1=Tales Of Rumi
TTITLE2=Sangam
TTITLE3=Nataraj
TTITLE4=Guman
TTITLE5=Tender Warriors
TTITLE6=Hymn To The Mother
TTITLE7=Lady In The Harbour
TTITLE8=Little Peace
EXTD=YEAR: 2006
EXTT0=
EXTT1=
EXTT2=
EXTT3=
EXTT4=
EXTT5=
EXTT6=
EXTT7=
EXTT8=
PLAYORDER=
